<?xml version="1.0" encoding="UTF-8" standalone="no"?>
<!DOCTYPE svg PUBLIC "-//W3C//DTD SVG 1.1//EN" "http://www.w3.org/Graphics/SVG/1.1/DTD/svg11.dtd">
<svg xmlns="http://www.w3.org/2000/svg" version="1.1" viewBox="0.00 0.00 679.00 367.00">
<g stroke-width="2.00" fill="none" stroke-linecap="butt">
<path stroke="#0168a9" vector-effect="non-scaling-stroke" d="
  M 364.94 161.81
  Q 359.42 162.75 355.70 161.91"
/>
<path stroke="#0168a9" vector-effect="non-scaling-stroke" d="
  M 340.12 161.93
  Q 335.34 163.14 330.19 162.06
  Q 329.46 161.91 328.87 162.51"
/>
<path stroke="#0168a9" vector-effect="non-scaling-stroke" d="
  M 157.16 69.72
  Q 146.61 45.08 119.75 42.72
  Q 118.56 42.62 117.85 42.96"
/>
<path stroke="#6685ab" vector-effect="non-scaling-stroke" d="
  M 317.60 16.71
  C 317.04 16.43 317.50 17.73 317.50 18.09
  Q 317.62 49.91 317.33 82.19"
/>
<path stroke="#6685ab" vector-effect="non-scaling-stroke" d="
  M 316.76 158.76
  Q 316.99 160.32 318.00 159.55"
/>
<path stroke="#66cdf3" vector-effect="non-scaling-stroke" d="
  M 368.57 126.38
  Q 366.71 125.63 366.26 126.46"
/>
<path stroke="#66cdf3" vector-effect="non-scaling-stroke" d="
  M 351.01 120.54
  C 349.16 114.76 351.40 110.10 350.03 104.79
  A 0.83 0.83 0.0 0 0 349.20 104.17
  L 340.35 104.48
  Q 339.77 104.50 339.73 105.08
  L 339.25 111.84"
/>
<path stroke="#66cdf3" vector-effect="non-scaling-stroke" d="
  M 337.88 106.66
  Q 337.07 106.89 336.47 106.68"
/>
<path stroke="#66cdf3" vector-effect="non-scaling-stroke" d="
  M 356.27 131.38
  Q 360.96 132.13 366.00 131.39
  A 1.59 1.59 0.0 0 1 367.82 133.08
  L 367.49 137.53
  Q 367.45 138.07 366.92 138.14
  L 361.50 138.84"
/>
<path stroke="#66cdf3" vector-effect="non-scaling-stroke" d="
  M 359.81 149.79
  L 363.59 141.53"
/>
<path stroke="#66cdf3" vector-effect="non-scaling-stroke" d="
  M 339.41 147.24
  Q 339.25 147.77 338.70 147.78
  Q 338.18 147.78 338.15 148.30
  Q 337.90 153.39 333.56 156.25"
/>
</g>
<path fill="#012060" d="
  M 16.31 0.00
  L 162.05 0.00
  Q 169.29 1.22 170.25 8.49
  C 171.69 19.24 171.58 31.28 168.52 41.83
  C 165.79 51.23 161.05 60.61 157.16 69.72
  Q 146.61 45.08 119.75 42.72
  Q 118.56 42.62 117.85 42.96
  Q 117.07 42.26 116.18 42.26
  Q 67.10 42.25 17.99 42.25
  C 14.31 42.24 11.82 39.77 11.07 36.45
  C 9.23 28.30 6.84 3.46 16.31 0.00
  Z"
/>
<path fill="#012060" d="
  M 259.31 0.00
  L 266.80 0.00
  C 285.60 1.79 300.87 4.79 316.44 14.80
  Q 317.43 15.43 317.60 16.71
  C 317.04 16.43 317.50 17.73 317.50 18.09
  Q 317.62 49.91 317.33 82.19
  C 304.73 56.42 282.96 41.83 253.47 46.52
  C 226.98 50.73 209.60 74.10 204.52 99.50
  C 199.87 122.75 202.63 147.97 215.17 168.14
  C 229.16 190.63 251.10 200.63 278.03 194.52
  C 295.08 190.66 309.36 173.88 316.76 158.76
  Q 316.99 160.32 318.00 159.55
  C 317.97 161.93 317.49 164.41 317.49 166.52
  Q 317.56 196.21 317.47 226.18
  A 0.99 0.99 0.0 0 1 317.00 227.02
  C 283.30 247.80 237.99 247.12 205.78 223.77
  C 183.34 207.50 166.87 180.79 160.48 154.26
  C 150.69 113.56 158.72 68.64 186.69 35.71
  Q 215.13 2.25 259.31 0.00
  Z"
/>
<path fill="#caeaf5" d="
  M 317.60 16.71
  C 345.68 34.41 363.03 65.22 368.25 97.69
  C 369.76 107.04 369.17 116.72 368.57 126.38
  Q 366.71 125.63 366.26 126.46
  C 361.75 129.68 356.93 125.42 353.93 122.19
  A 2.03 1.99 -71.7 0 1 353.42 121.15
  L 352.06 113.24
  A 0.32 0.32 0.0 0 0 351.43 113.24
  Q 350.79 116.79 351.01 120.54
  C 349.16 114.76 351.40 110.10 350.03 104.79
  A 0.83 0.83 0.0 0 0 349.20 104.17
  L 340.35 104.48
  Q 339.77 104.50 339.73 105.08
  L 339.25 111.84
  Q 338.91 108.09 337.88 106.66
  Q 337.07 106.89 336.47 106.68
  C 335.73 107.38 335.19 107.70 334.13 107.36
  C 328.28 105.47 324.35 103.50 322.83 97.39
  Q 320.80 89.28 317.33 82.19
  Q 317.62 49.91 317.50 18.09
  C 317.50 17.73 317.04 16.43 317.60 16.71
  Z"
/>
<path fill="#01b0f1" d="
  M 157.16 69.72
  Q 113.10 169.64 89.12 227.09
  Q 85.65 235.40 77.44 236.41
  Q 65.96 237.84 48.15 236.65
  C 43.98 236.37 32.60 236.33 33.78 229.51
  Q 34.15 227.33 36.63 221.95
  Q 76.38 135.50 115.03 48.55
  Q 116.27 45.76 117.85 42.96
  Q 118.56 42.62 119.75 42.72
  Q 146.61 45.08 157.16 69.72
  Z"
/>
<path fill="#01b0f1" d="
  M 264.90 158.68
  C 276.58 159.04 285.07 151.59 290.73 141.46
  A 0.54 0.54 0.0 0 1 291.74 141.73
  Q 291.76 157.16 291.75 172.75
  Q 291.75 174.03 290.36 174.82
  C 269.32 186.88 243.78 182.50 228.33 163.89
  C 206.48 137.58 207.91 95.85 233.11 72.25
  C 249.08 57.29 271.57 56.04 290.66 66.49
  Q 291.77 67.09 291.76 68.35
  L 291.72 98.76
  A 0.42 0.42 0.0 0 1 290.96 99.02
  C 289.00 96.45 287.26 93.24 285.37 91.23
  Q 274.10 79.25 258.00 83.49
  C 225.90 91.94 228.21 157.54 264.90 158.68
  Z"
/>
<path fill="#01b0f1" d="
  M 398.95 96.20
  A 0.93 0.93 0.0 0 1 398.39 97.39
  L 396.64 98.04
  A 11.82 1.57 -20.2 0 1 385.00 100.64
  L 384.56 99.42
  A 11.82 1.57 -20.2 0 1 395.11 93.87
  L 396.86 93.22
  A 0.93 0.93 0.0 0 1 398.05 93.78
  L 398.95 96.20
  Z"
/>
<path fill="#01b0f1" d="
  M 332.8916 122.5268
  A 15.68 15.68 0.0 0 1 317.3490 138.3430
  L 311.3093 138.3957
  A 15.68 15.68 0.0 0 1 295.4930 122.8531
  L 295.4684 120.0332
  A 15.68 15.68 0.0 0 1 311.0110 104.2170
  L 317.0507 104.1643
  A 15.68 15.68 0.0 0 1 332.8670 119.7069
  L 332.8916 122.5268
  Z
  M 321.59 117.78
  A 7.12 7.12 0.0 0 0 314.47 110.66
  L 313.35 110.66
  A 7.12 7.12 0.0 0 0 306.23 117.78
  L 306.23 124.94
  A 7.12 7.12 0.0 0 0 313.35 132.06
  L 314.47 132.06
  A 7.12 7.12 0.0 0 0 321.59 124.94
  L 321.59 117.78
  Z"
/>
<path fill="#01b0f1" d="
  M 438.80 135.37
  C 430.60 140.69 416.81 139.98 411.42 130.80
  C 406.11 121.74 410.51 107.82 421.01 104.97
  C 430.85 102.30 441.53 104.24 445.56 114.40
  A 0.89 0.89 0.0 0 1 444.82 115.61
  L 436.70 116.44
  Q 436.22 116.49 435.98 116.08
  L 433.99 112.72
  Q 433.72 112.25 433.25 111.97
  C 418.43 102.87 412.89 134.87 431.26 131.74
  Q 433.80 131.30 435.21 128.96
  A 1.62 1.62 0.0 0 0 433.83 126.50
  L 428.14 126.49
  A 0.66 0.66 0.0 0 1 427.48 125.83
  L 427.43 120.63
  A 0.62 0.62 0.0 0 1 428.05 120.00
  L 444.50 120.00
  A 1.25 1.25 0.0 0 1 445.75 121.25
  L 445.75 136.73
  A 1.46 1.45 83.2 0 1 444.64 138.15
  Q 442.94 138.57 441.44 137.94
  Q 441.00 137.75 440.75 137.35
  L 439.70 135.58
  Q 439.36 135.01 438.80 135.37
  Z"
/>
<path fill="#01b0f1" d="
  M 508.5643 121.8227
  A 18.94 17.65 1.4 0 1 489.1988 139.0047
  A 18.94 17.65 1.4 0 1 470.6957 120.8973
  A 18.94 17.65 1.4 0 1 490.0612 103.7153
  A 18.94 17.65 1.4 0 1 508.5643 121.8227
  Z
  M 489.5517 132.5098
  A 11.14 8.21 90.3 0 0 497.8199 121.4130
  A 11.14 8.21 90.3 0 0 489.6683 110.2302
  A 11.14 8.21 90.3 0 0 481.4001 121.3270
  A 11.14 8.21 90.3 0 0 489.5517 132.5098
  Z"
/>
<path fill="#01b0f1" d="
  M 351.01 120.54
  L 350.46 129.97
  A 1.32 1.32 0.0 0 0 352.12 131.33
  Q 354.77 130.62 356.27 131.38
  Q 360.96 132.13 366.00 131.39
  A 1.59 1.59 0.0 0 1 367.82 133.08
  L 367.49 137.53
  Q 367.45 138.07 366.92 138.14
  L 361.50 138.84
  Q 350.65 138.18 339.79 138.66
  Q 339.28 138.68 339.27 138.17
  L 339.25 111.84
  L 339.73 105.08
  Q 339.77 104.50 340.35 104.48
  L 349.20 104.17
  A 0.83 0.83 0.0 0 1 350.03 104.79
  C 351.40 110.10 349.16 114.76 351.01 120.54
  Z"
/>
<path fill="#01b0f1" d="
  M 384.64 117.75
  L 399.69 117.75
  Q 400.37 117.75 400.39 118.43
  L 400.54 122.79
  A 1.41 1.40 89.0 0 1 399.14 124.25
  L 384.55 124.25
  Q 383.84 124.25 383.85 124.96
  L 383.95 130.77
  A 0.75 0.75 0.0 0 0 384.70 131.50
  L 403.82 131.50
  Q 404.47 131.50 404.63 132.13
  Q 405.27 134.52 404.71 137.02
  Q 404.44 138.25 403.18 138.25
  L 374.21 138.25
  A 1.03 1.03 0.0 0 1 373.18 137.22
  L 373.28 105.44
  A 0.80 0.80 0.0 0 1 374.04 104.64
  Q 389.09 103.93 404.13 104.54
  A 0.63 0.63 0.0 0 1 404.74 105.14
  L 405.00 110.04
  A 0.80 0.79 89.0 0 1 404.20 110.88
  L 385.52 110.77
  A 1.83 1.82 87.8 0 0 383.69 112.75
  L 384.06 117.22
  Q 384.11 117.75 384.64 117.75
  Z"
/>
<rect fill="#01b0f1" x="453.75" y="104.50" width="10.50" height="33.70" rx="1.55"/>
<path fill="#01b0f1" d="
  M 336.47 106.68
  Q 337.07 106.89 337.88 106.66
  C 337.45 107.73 336.38 108.62 336.47 106.68
  Z"
/>
<path fill="#01b0f1" d="
  M 368.57 126.38
  L 368.48 127.26
  Q 368.44 127.61 368.14 127.78
  L 367.81 127.98
  A 0.21 0.20 -15.5 0 1 367.50 127.81
  L 367.50 127.21
  A 0.71 0.71 0.0 0 0 366.84 126.50
  L 366.26 126.46
  Q 366.71 125.63 368.57 126.38
  Z"
/>
<path fill="#caeaf5" d="
  M 359.81 149.79
  L 363.59 141.53
  Q 365.37 141.27 366.36 140.43
  Q 366.82 140.03 366.23 139.90
  L 361.50 138.84
  L 366.92 138.14
  Q 367.45 138.07 367.49 137.53
  L 367.82 133.08
  A 1.59 1.59 0.0 0 0 366.00 131.39
  Q 360.96 132.13 356.27 131.38
  C 358.87 130.60 367.88 128.65 368.82 133.31
  C 370.16 139.91 367.39 149.56 365.92 156.18
  Q 365.55 157.87 364.99 158.55
  A 2.30 2.30 0.0 0 1 361.14 158.09
  Q 359.32 154.29 359.81 149.79
  Z"
/>
<path fill="#caeaf5" d="
  M 339.41 147.24
  Q 339.25 147.77 338.70 147.78
  Q 338.18 147.78 338.15 148.30
  Q 337.90 153.39 333.56 156.25
  Q 329.41 159.86 324.46 160.01
  C 322.52 160.08 320.26 158.94 318.00 159.55
  Q 316.99 160.32 316.76 158.76
  Q 320.31 153.76 322.32 145.82
  Q 324.07 138.91 330.82 139.16
  C 332.70 139.23 335.53 138.90 337.90 139.96
  Q 338.34 140.16 338.41 140.63
  L 339.41 147.24
  Z"
/>
<path fill="#012060" d="
  M 449.28 141.57
  L 451.79 148.85
  A 0.85 0.85 0.0 0 1 451.40 149.87
  L 436.16 158.18
  A 0.85 0.85 0.0 0 1 434.94 157.69
  L 433.39 152.67
  A 0.85 0.85 0.0 0 1 433.69 151.73
  L 447.97 141.17
  A 0.85 0.85 0.0 0 1 449.28 141.57
  Z"
/>
<path fill="#01b0f1" d="
  M 363.59 141.53
  L 359.81 149.79
  Q 359.03 149.50 359.19 148.03
  Q 359.47 145.43 358.68 143.40
  Q 358.17 142.09 359.57 141.94
  L 363.59 141.53
  Z"
/>
<path fill="#01b0f1" d="
  M 339.41 147.24
  C 339.15 152.07 339.45 156.41 333.56 156.25
  Q 337.90 153.39 338.15 148.30
  Q 338.18 147.78 338.70 147.78
  Q 339.25 147.77 339.41 147.24
  Z"
/>
<path fill="#01b0f1" d="
  M 364.94 161.81
  Q 359.42 162.75 355.70 161.91
  C 358.57 161.46 362.45 160.01 364.94 161.81
  Z"
/>
<path fill="#01b0f1" d="
  M 340.12 161.93
  Q 335.34 163.14 330.19 162.06
  Q 329.46 161.91 328.87 162.51
  Q 328.60 162.06 328.95 161.65
  Q 329.28 161.25 329.80 161.28
  L 340.12 161.93
  Z"
/>
<path fill="#012060" d="
  M 508.14 175.16
  C 513.65 160.07 532.89 155.10 541.56 170.26
  C 549.52 184.18 549.48 204.21 542.20 217.94
  C 535.17 231.20 516.23 231.48 509.88 217.57
  Q 500.32 196.61 508.14 175.16
  Z
  M 526.43 175.18
  C 515.58 174.44 515.87 209.37 523.66 213.33
  C 536.65 219.95 537.97 175.97 526.43 175.18
  Z"
/>
<path fill="#012060" d="
  M 592.06 177.33
  C 598.25 157.45 620.44 154.76 628.48 175.06
  Q 635.46 192.70 629.63 211.59
  C 626.89 220.49 620.86 228.02 610.94 227.96
  Q 600.93 227.91 595.76 219.24
  C 588.36 206.83 587.84 190.85 592.06 177.33
  Z
  M 612.01 175.24
  C 599.33 172.75 599.70 217.18 612.21 213.74
  C 621.41 211.22 621.11 177.03 612.01 175.24
  Z"
/>
<path fill="#012060" d="
  M 340.12 161.93
  L 355.70 161.91
  Q 359.42 162.75 364.94 161.81
  Q 365.59 168.40 364.89 174.97
  A 1.11 1.10 2.9 0 1 363.80 175.95
  L 342.81 176.12
  A 0.57 0.57 0.0 0 0 342.25 176.69
  L 342.25 186.20
  Q 342.25 186.65 342.70 186.66
  L 359.56 187.04
  A 0.70 0.70 0.0 0 1 360.25 187.74
  L 360.25 200.02
  A 0.72 0.71 -90.0 0 1 359.54 200.74
  L 342.87 200.76
  A 0.62 0.62 0.0 0 0 342.25 201.38
  L 342.25 212.00
  Q 342.25 212.49 342.75 212.49
  L 364.54 212.51
  A 0.71 0.71 0.0 0 1 365.25 213.22
  L 365.25 226.34
  A 0.66 0.65 -90.0 0 1 364.60 227.00
  L 329.51 227.00
  A 0.55 0.55 0.0 0 1 328.96 226.45
  L 328.87 162.51
  Q 329.46 161.91 330.19 162.06
  Q 335.34 163.14 340.12 161.93
  Z"
/>
<path fill="#012060" d="
  M 555.52 161.99
  L 567.01 161.96
  A 0.77 0.77 0.0 0 1 567.78 162.73
  L 567.74 211.65
  A 0.77 0.77 0.0 0 0 568.50 212.42
  L 586.49 212.78
  A 0.77 0.77 0.0 0 1 587.25 213.55
  L 587.25 226.23
  A 0.77 0.77 0.0 0 1 586.48 227.00
  L 555.52 227.00
  A 0.77 0.77 0.0 0 1 554.75 226.23
  L 554.75 162.76
  A 0.77 0.77 0.0 0 1 555.52 161.99
  Z"
/>
<path fill="#012060" d="
  M 385.72 202.04
  A 0.74 0.74 0.0 0 0 385.00 202.78
  L 385.00 226.47
  A 0.53 0.53 0.0 0 1 384.47 227.00
  L 372.46 227.00
  A 0.79 0.79 0.0 0 1 371.67 226.21
  L 371.97 163.08
  A 1.00 1.00 0.0 0 1 372.94 162.08
  Q 382.70 161.77 392.76 162.21
  C 402.15 162.62 407.76 164.01 410.92 173.04
  C 413.88 181.51 413.21 192.85 405.05 198.15
  A 1.37 1.37 0.0 0 0 404.49 199.72
  L 412.65 225.51
  Q 413.12 227.00 411.56 227.00
  L 400.11 227.00
  A 1.21 1.20 81.5 0 1 398.96 226.14
  L 391.83 202.38
  A 0.69 0.69 0.0 0 0 391.16 201.89
  L 385.72 202.04
  Z
  M 385.03 176.33
  L 384.89 188.21
  A 1.20 1.20 0.0 0 0 386.07 189.43
  L 392.78 189.51
  A 6.72 6.37 -89.3 0 0 399.23 182.87
  L 399.24 182.03
  A 6.72 6.37 -89.3 0 0 392.96 175.23
  L 386.25 175.15
  A 1.20 1.20 0.0 0 0 385.03 176.33
  Z"
/>
<path fill="#012060" d="
  M 433.11 162.31
  L 446.11 161.91
  A 0.83 0.83 0.0 0 1 446.95 162.55
  L 462.04 225.97
  A 0.83 0.83 0.0 0 1 461.23 226.99
  L 449.29 227.00
  A 0.83 0.83 0.0 0 1 448.47 226.35
  L 445.92 214.90
  A 0.83 0.83 0.0 0 0 445.11 214.25
  L 431.77 214.25
  A 0.83 0.83 0.0 0 0 430.96 214.89
  L 428.30 226.36
  A 0.83 0.83 0.0 0 1 427.49 227.00
  L 417.82 226.99
  A 0.83 0.83 0.0 0 1 417.02 225.96
  L 432.33 162.94
  A 0.83 0.83 0.0 0 1 433.11 162.31
  Z
  M 434.26 199.90
  A 0.49 0.49 0.0 0 0 434.74 200.50
  L 442.16 200.50
  A 0.49 0.49 0.0 0 0 442.64 199.90
  L 438.93 182.61
  A 0.49 0.49 0.0 0 0 437.97 182.61
  L 434.26 199.90
  Z"
/>
<path fill="#012060" d="
  M 484.62 205.58
  L 493.77 162.24
  A 0.30 0.30 0.0 0 1 494.06 162.00
  L 504.35 162.00
  A 0.30 0.30 0.0 0 1 504.65 162.37
  L 489.98 226.77
  A 0.30 0.30 0.0 0 1 489.69 227.00
  L 476.64 227.00
  A 0.30 0.30 0.0 0 1 476.35 226.77
  L 461.74 162.37
  A 0.30 0.30 0.0 0 1 462.04 162.00
  L 474.93 162.00
  A 0.30 0.30 0.0 0 1 475.23 162.24
  L 484.03 205.58
  A 0.30 0.30 0.0 0 0 484.62 205.58
  Z"
/>
<path fill="#012060" d="
  M 191.00 274.22
  C 188.11 277.48 173.98 292.18 170.10 282.74
  C 168.19 278.10 173.06 270.14 176.08 266.76
  A 0.45 0.44 -51.7 0 0 176.01 266.11
  C 174.61 265.09 160.55 281.65 159.03 283.03
  C 154.06 287.56 151.62 279.08 151.76 275.87
  A 0.51 0.51 0.0 0 0 150.90 275.48
  C 148.08 278.25 133.35 291.48 130.04 284.39
  C 128.64 281.39 130.82 276.44 132.30 273.53
  A 0.52 0.52 0.0 0 0 131.49 272.90
  Q 125.55 278.12 118.81 282.80
  C 112.19 287.41 107.91 278.12 107.58 272.97
  Q 107.55 272.44 107.02 272.55
  Q 85.48 277.08 63.91 273.33
  Q 61.02 272.83 58.01 271.19
  C 45.81 264.54 32.75 257.33 18.99 264.48
  Q 9.95 269.18 3.33 273.30
  Q 2.90 273.56 2.63 273.14
  L 0.86 270.40
  Q 0.58 269.96 1.01 269.66
  C 9.28 263.89 20.83 257.05 29.95 256.74
  C 39.75 256.40 50.72 262.33 59.15 266.84
  C 68.93 272.08 103.98 272.46 112.76 264.55
  C 117.94 259.88 139.08 246.47 145.06 254.47
  A 1.84 1.83 54.9 0 1 144.61 257.10
  L 143.47 257.87
  Q 142.80 258.31 143.46 258.77
  Q 146.64 260.94 144.49 263.74
  C 141.93 267.08 137.77 271.71 137.73 275.08
  Q 137.73 275.55 138.06 275.88
  C 141.15 279.00 151.65 271.84 153.45 268.09
  Q 156.75 261.23 162.59 256.28
  Q 162.98 255.94 163.50 255.86
  Q 166.48 255.38 169.27 256.30
  A 0.97 0.97 0.0 0 1 169.91 257.03
  C 170.88 261.80 158.44 269.03 159.33 272.24
  A 0.88 0.88 0.0 0 0 160.84 272.59
  Q 171.60 260.44 185.78 252.54
  Q 187.52 251.57 188.56 253.27
  C 194.24 262.53 179.65 265.64 179.54 274.93
  Q 179.53 275.51 180.08 275.66
  C 183.35 276.59 189.05 271.27 191.36 269.16
  C 193.30 267.40 193.26 265.22 194.56 263.56
  Q 203.35 252.28 216.97 251.44
  Q 220.53 251.22 221.04 254.86
  Q 221.09 255.24 220.83 255.52
  L 220.02 256.40
  Q 219.63 256.82 220.09 257.17
  C 224.33 260.38 221.53 267.58 219.24 271.32
  A 0.80 0.80 0.0 0 0 220.10 272.52
  C 220.99 272.32 222.16 272.20 222.87 271.56
  Q 231.92 263.37 240.89 255.07
  Q 241.22 254.76 241.29 254.30
  Q 242.17 248.42 248.28 249.64
  A 0.80 0.79 86.9 0 1 248.89 250.19
  C 252.27 261.43 252.46 271.04 240.84 277.42
  A 0.53 0.52 -51.6 0 0 240.95 278.39
  C 243.29 279.02 245.03 278.03 246.93 276.42
  Q 258.96 266.23 269.91 259.42
  C 284.65 250.25 298.25 255.47 312.36 263.00
  C 316.84 265.39 323.33 265.74 327.76 265.06
  C 340.99 263.01 355.77 257.03 370.06 257.23
  A 1.04 1.04 0.0 0 1 371.08 258.36
  L 370.81 261.42
  A 0.70 0.70 0.0 0 1 370.08 262.06
  C 357.80 261.64 346.83 265.60 335.32 268.33
  C 327.81 270.12 318.01 270.98 310.94 267.34
  C 303.56 263.53 294.03 258.89 286.19 259.18
  C 277.03 259.51 271.17 264.04 263.84 269.09
  C 255.70 274.71 247.69 286.13 236.56 285.51
  Q 227.87 285.03 223.71 276.96
  Q 223.44 276.45 222.92 276.68
  Q 219.19 278.34 215.05 278.45
  A 1.26 1.24 -68.1 0 0 214.18 278.83
  Q 209.60 283.41 205.24 284.47
  C 196.61 286.56 194.15 281.56 192.12 274.48
  A 0.66 0.65 57.8 0 0 191.00 274.22
  Z
  M 236.14 276.16
  C 243.43 271.57 242.27 268.14 241.45 260.61
  A 0.55 0.55 0.0 0 0 240.53 260.27
  L 229.25 270.80
  Q 228.71 271.31 229.42 271.54
  C 232.61 272.60 232.95 274.18 235.27 276.11
  Q 235.68 276.45 236.14 276.16
  Z
  M 136.27 260.78
  C 128.86 263.06 115.18 267.10 113.88 276.31
  A 1.68 1.68 0.0 0 0 116.06 278.14
  C 123.07 275.89 131.60 266.57 136.55 261.24
  A 0.28 0.28 0.0 0 0 136.27 260.78
  Z
  M 198.90 276.77
  C 200.80 280.80 206.64 277.84 208.45 275.46
  Q 208.73 275.09 208.63 274.63
  Q 207.21 267.91 211.28 262.42
  A 0.52 0.52 0.0 0 0 210.61 261.66
  C 206.76 263.79 195.95 270.51 198.90 276.77
  Z"
/>
<path fill="#012060" d="
  M 385.46 251.06
  A 0.86 0.86 0.0 0 1 386.32 250.20
  L 398.77 250.18
  A 14.04 13.65 89.9 0 1 412.45 264.20
  L 412.45 268.42
  A 14.04 13.65 89.9 0 1 398.83 282.48
  L 386.38 282.50
  A 0.86 0.86 0.0 0 1 385.52 281.64
  L 385.46 251.06
  Z
  M 392.16 256.34
  L 392.12 276.46
  A 0.60 0.60 0.0 0 0 392.72 277.06
  L 398.07 277.07
  A 7.89 7.67 -89.9 0 0 405.76 269.19
  L 405.76 263.65
  A 7.89 7.67 -89.9 0 0 398.11 255.75
  L 392.76 255.74
  A 0.60 0.60 0.0 0 0 392.16 256.34
  Z"
/>
<path fill="#012060" d="
  M 474.38 282.66
  C 466.62 280.95 465.43 272.20 466.86 265.82
  C 468.42 258.81 476.93 256.66 482.19 261.22
  A 0.39 0.38 20.4 0 0 482.83 260.93
  L 482.71 250.88
  A 0.61 0.60 -90.0 0 1 483.31 250.27
  L 488.32 250.27
  Q 489.06 250.27 489.06 251.01
  L 488.78 281.58
  Q 488.78 282.24 488.14 282.38
  C 486.84 282.66 482.34 283.31 483.34 280.47
  A 0.60 0.60 0.0 0 0 482.33 279.86
  Q 478.87 283.65 474.38 282.66
  Z
  M 477.5796 278.0994
  A 7.40 5.16 90.7 0 0 482.8296 270.7630
  A 7.40 5.16 90.7 0 0 477.7604 263.3006
  A 7.40 5.16 90.7 0 0 472.5104 270.6370
  A 7.40 5.16 90.7 0 0 477.5796 278.0994
  Z"
/>
<path fill="#012060" d="
  M 542.50 260.25
  A 0.56 0.56 0.0 0 0 541.56 259.83
  Q 538.80 262.35 535.22 263.51
  A 0.56 0.56 0.0 0 1 534.49 262.98
  L 534.51 258.65
  Q 534.51 258.17 534.96 258.01
  Q 540.62 255.99 543.38 250.68
  Q 543.61 250.25 544.10 250.25
  L 548.16 250.25
  A 0.60 0.60 0.0 0 1 548.76 250.85
  L 548.72 281.86
  Q 548.72 282.49 548.08 282.49
  L 543.13 282.50
  Q 542.50 282.51 542.50 281.88
  L 542.50 260.25
  Z"
/>
<path fill="#012060" d="
  M 571.59 269.57
  C 555.54 278.60 551.10 249.51 567.91 250.36
  Q 576.65 250.80 578.16 261.07
  C 579.46 269.84 578.14 283.64 566.07 282.89
  Q 559.97 282.51 558.03 275.88
  A 0.84 0.83 79.5 0 1 558.76 274.81
  L 562.99 274.46
  Q 563.57 274.41 563.83 274.92
  L 564.77 276.78
  A 1.36 1.36 0.0 0 0 565.55 277.46
  C 570.61 279.18 572.00 273.65 572.26 269.99
  Q 572.32 269.16 571.59 269.57
  Z
  M 567.7669 267.0414
  A 5.86 4.22 86.9 0 0 571.6638 260.9618
  A 5.86 4.22 86.9 0 0 567.1331 255.3386
  A 5.86 4.22 86.9 0 0 563.2362 261.4182
  A 5.86 4.22 86.9 0 0 567.7669 267.0414
  Z"
/>
<path fill="#012060" d="
  M 623.04 265.46
  C 632.60 269.70 628.07 281.82 618.77 282.80
  C 613.84 283.32 607.25 280.07 607.27 274.34
  A 0.58 0.57 -2.8 0 1 607.79 273.77
  L 612.25 273.35
  A 0.82 0.82 0.0 0 1 613.12 273.98
  C 614.03 277.90 618.52 279.25 620.92 275.88
  C 623.42 272.39 621.31 266.14 615.93 267.80
  A 0.73 0.73 0.0 0 1 615.00 266.98
  L 615.63 263.32
  Q 615.71 262.80 616.24 262.78
  C 621.41 262.65 622.23 255.72 617.64 255.45
  Q 614.03 255.25 613.22 258.98
  A 0.58 0.57 10.7 0 1 612.55 259.43
  L 608.00 258.60
  Q 607.56 258.52 607.65 258.08
  C 611.20 241.51 636.66 254.36 622.96 264.77
  A 0.41 0.40 -52.0 0 0 623.04 265.46
  Z"
/>
<path fill="#012060" d="
  M 590.92 256.99
  L 590.25 261.23
  A 0.19 0.19 0.0 0 0 590.46 261.45
  C 608.29 258.53 607.52 281.55 594.50 282.79
  Q 585.29 283.67 582.77 275.05
  A 0.82 0.82 0.0 0 1 583.47 274.01
  L 588.00 273.58
  Q 588.56 273.52 588.78 274.03
  L 589.49 275.62
  Q 589.69 276.09 590.06 276.45
  Q 592.17 278.56 594.56 277.64
  C 601.31 275.04 596.80 260.61 588.88 267.73
  Q 588.48 268.09 587.94 268.03
  L 584.02 267.55
  A 0.67 0.67 0.0 0 1 583.44 266.76
  L 586.32 251.26
  Q 586.41 250.77 586.90 250.77
  L 602.20 250.71
  A 0.44 0.43 -0.0 0 1 602.64 251.14
  L 602.72 255.75
  Q 602.74 256.49 602.00 256.49
  L 591.47 256.52
  A 0.56 0.55 4.2 0 0 590.92 256.99
  Z"
/>
<path fill="#012060" d="
  M 417.80 277.12
  C 413.33 268.70 418.92 256.05 430.18 259.27
  Q 438.56 261.67 437.74 272.04
  Q 437.70 272.50 437.24 272.50
  L 423.71 272.50
  Q 422.40 272.50 422.68 273.77
  C 423.64 278.26 429.08 280.49 431.40 275.56
  Q 431.61 275.12 432.08 275.19
  L 436.52 275.83
  A 1.03 1.03 0.0 0 1 437.21 277.45
  C 432.08 284.63 422.03 285.10 417.80 277.12
  Z
  M 423.29 268.76
  L 431.29 268.74
  A 0.47 0.47 0.0 0 0 431.76 268.27
  L 431.76 268.11
  A 4.65 4.22 89.9 0 0 427.54 263.47
  L 427.04 263.47
  A 4.65 4.22 89.9 0 0 422.82 268.13
  L 422.82 268.29
  A 0.47 0.47 0.0 0 0 423.29 268.76
  Z"
/>
<path fill="#012060" d="
  M 455.41 274.52
  C 451.74 273.29 445.80 272.81 443.21 269.90
  C 434.81 260.44 456.40 253.08 461.34 264.04
  Q 461.61 264.64 460.97 264.78
  L 456.79 265.69
  Q 456.28 265.80 455.94 265.41
  Q 452.81 261.79 447.99 263.74
  Q 447.50 263.94 447.47 264.46
  Q 447.35 266.34 449.25 266.76
  C 453.10 267.60 458.99 268.66 461.31 271.68
  C 464.71 276.12 460.10 281.69 455.07 282.56
  C 449.60 283.52 442.82 282.18 441.04 276.29
  A 0.53 0.53 0.0 0 1 441.48 275.61
  L 446.16 275.00
  Q 446.56 274.94 446.76 275.30
  Q 449.46 280.11 454.74 277.97
  Q 456.65 277.20 456.04 275.17
  A 0.97 0.96 1.3 0 0 455.41 274.52
  Z"
/>
<path fill="#012060" d="
  M 499.37 273.10
  C 499.32 277.92 505.35 280.59 508.06 275.61
  Q 508.32 275.13 508.86 275.21
  L 513.26 275.85
  A 0.79 0.78 16.6 0 1 513.86 276.96
  C 510.99 283.04 503.62 284.38 498.30 281.35
  C 487.39 275.12 494.14 253.22 508.12 259.66
  Q 515.32 262.98 514.33 272.00
  Q 514.28 272.50 513.78 272.50
  L 499.97 272.50
  A 0.60 0.60 0.0 0 0 499.37 273.10
  Z
  M 500.21 268.77
  L 507.81 268.75
  A 0.69 0.69 0.0 0 0 508.50 268.05
  L 508.50 267.91
  A 4.45 4.34 89.8 0 0 504.14 263.48
  L 503.84 263.48
  A 4.45 4.34 89.8 0 0 499.52 267.95
  L 499.52 268.09
  A 0.69 0.69 0.0 0 0 500.21 268.77
  Z"
/>
<path fill="#012060" d="
  M 157.90 338.04
  C 154.71 342.52 146.61 341.47 145.25 335.24
  Q 144.23 330.57 144.94 317.88
  A 0.41 0.41 0.0 0 1 145.35 317.50
  L 146.68 317.50
  A 0.58 0.58 0.0 0 1 147.26 318.08
  Q 147.23 325.42 147.26 332.73
  C 147.30 340.38 157.03 340.41 157.17 333.50
  Q 157.32 325.87 157.23 318.49
  A 0.98 0.96 -11.5 0 1 157.85 317.58
  C 159.02 317.13 159.73 317.67 159.75 318.91
  C 159.80 323.97 160.68 334.14 157.90 338.04
  Z"
/>
<path fill="#012060" d="
  M 196.02 326.70
  L 195.99 340.02
  Q 195.99 340.43 195.59 340.53
  L 194.48 340.80
  Q 193.77 340.97 193.74 340.24
  Q 193.59 336.59 193.59 327.26
  Q 193.59 325.85 191.84 325.84
  A 0.65 0.65 0.0 0 1 191.20 325.07
  Q 191.46 323.66 192.91 323.76
  A 0.58 0.58 0.0 0 0 193.54 323.23
  C 193.83 319.63 194.20 316.51 199.02 317.65
  A 0.62 0.61 11.1 0 1 199.49 318.34
  L 199.36 319.24
  A 0.62 0.61 -83.8 0 1 198.72 319.76
  C 196.31 319.65 195.62 321.24 196.12 323.33
  A 0.58 0.58 0.0 0 0 196.79 323.76
  Q 198.35 323.46 198.73 325.06
  Q 198.88 325.68 198.25 325.80
  L 196.50 326.12
  Q 196.02 326.21 196.02 326.70
  Z"
/>
<path fill="#012060" d="
  M 270.66 325.11
  C 280.27 317.93 283.42 340.41 273.71 340.73
  Q 271.89 340.79 270.67 339.34
  A 0.63 0.62 -59.3 0 0 269.58 339.62
  L 269.45 340.32
  Q 269.36 340.75 268.92 340.75
  L 268.37 340.75
  Q 267.75 340.75 267.75 340.12
  L 267.75 318.09
  Q 267.75 317.41 268.42 317.48
  L 269.36 317.58
  Q 270.00 317.64 270.00 318.28
  L 270.00 324.78
  Q 270.00 325.60 270.66 325.11
  Z
  M 273.3328 338.5366
  A 6.25 3.83 91.9 0 0 277.3679 332.4170
  A 6.25 3.83 91.9 0 0 273.7472 326.0434
  A 6.25 3.83 91.9 0 0 269.7121 332.1630
  A 6.25 3.83 91.9 0 0 273.3328 338.5366
  Z"
/>
<ellipse fill="#02020b" fill-opacity="0.996" cx="0.00" cy="0.00" transform="translate(292.40,319.13) rotate(90.0)" rx="1.73" ry="1.24"/>
<rect fill="#012060" x="-1.14" y="-11.59" transform="translate(298.36,329.11) rotate(-0.1)" width="2.28" height="23.18" rx="0.59"/>
<path fill="#012060" d="
  M 305.82 328.10
  C 304.78 330.69 305.22 335.51 305.26 340.03
  A 0.64 0.63 -3.5 0 1 304.69 340.67
  L 303.63 340.77
  A 0.60 0.60 0.0 0 1 302.97 340.16
  Q 303.10 329.13 302.89 318.09
  A 0.51 0.51 0.0 0 1 303.36 317.57
  L 304.59 317.48
  A 0.61 0.61 0.0 0 1 305.25 318.09
  L 305.25 324.79
  Q 305.25 325.45 305.85 325.16
  C 316.69 319.94 314.42 333.98 313.82 340.24
  Q 313.77 340.78 313.23 340.74
  L 312.40 340.68
  A 0.71 0.70 1.8 0 1 311.75 339.99
  Q 311.74 334.79 311.74 329.62
  C 311.74 325.45 307.22 324.64 305.82 328.10
  Z"
/>
<rect fill="#012060" x="-1.19" y="-1.60" transform="translate(521.67,319.11) rotate(0.2)" width="2.38" height="3.20" rx="0.75"/>
<path fill="#012060" d="
  M 350.01 326.77
  L 350.31 337.72
  Q 350.33 338.42 351.03 338.48
  L 351.83 338.54
  Q 352.40 338.58 352.56 339.13
  L 352.77 339.84
  Q 352.96 340.48 352.30 340.62
  C 345.68 342.00 347.76 330.51 347.75 326.84
  A 0.77 0.75 -80.4 0 0 347.26 326.14
  L 346.14 325.72
  Q 345.54 325.51 345.71 324.89
  Q 346.05 323.64 347.36 323.71
  A 0.53 0.52 82.5 0 0 347.88 323.03
  Q 346.93 319.95 349.55 318.57
  A 0.52 0.52 0.0 0 1 350.31 319.06
  L 350.09 323.32
  Q 350.05 323.91 350.62 323.76
  Q 352.21 323.35 352.57 324.88
  A 0.76 0.75 77.0 0 1 352.01 325.79
  L 350.50 326.13
  A 0.65 0.64 82.8 0 0 350.01 326.77
  Z"
/>
<path fill="#012060" d="
  M 215.26 322.66
  Q 214.65 320.00 216.91 318.74
  A 0.57 0.56 75.5 0 1 217.75 319.24
  L 217.75 322.92
  Q 217.75 323.61 218.43 323.70
  L 219.56 323.86
  A 1.06 1.06 0.0 0 1 219.46 325.97
  L 218.36 326.01
  Q 217.75 326.03 217.75 326.64
  L 217.75 337.68
  Q 217.75 338.29 218.35 338.41
  L 219.49 338.64
  A 0.84 0.83 -1.0 0 1 220.16 339.28
  L 220.28 339.81
  A 0.77 0.77 0.0 0 1 219.60 340.74
  C 213.25 341.34 215.22 330.60 215.24 326.85
  Q 215.24 326.37 214.79 326.17
  L 213.44 325.59
  A 0.60 0.59 -50.8 0 1 213.34 324.55
  L 214.99 323.38
  Q 215.37 323.11 215.26 322.66
  Z"
/>
<path fill="#012060" d="
  M 174.36 325.74
  C 185.06 317.89 182.53 335.70 182.49 339.99
  Q 182.48 340.50 182.01 340.68
  C 180.79 341.14 180.24 340.60 180.25 339.39
  Q 180.28 333.91 180.24 328.65
  A 2.57 2.56 -80.2 0 0 178.57 326.27
  C 172.77 324.11 174.49 337.25 174.52 339.99
  Q 174.53 340.54 173.98 340.61
  L 172.68 340.79
  Q 172.04 340.88 172.04 340.24
  Q 172.00 334.49 171.79 328.77
  C 171.64 324.96 167.17 325.75 166.48 328.24
  Q 165.78 330.78 166.09 339.90
  Q 166.11 340.62 165.39 340.67
  L 164.43 340.75
  A 0.64 0.63 87.9 0 1 163.75 340.11
  L 163.75 324.83
  A 1.35 1.30 -28.2 0 1 164.00 324.06
  Q 164.76 322.99 165.50 324.09
  Q 165.69 324.37 165.75 324.69
  L 165.85 325.22
  A 0.44 0.44 0.0 0 0 166.59 325.44
  Q 170.16 321.74 173.58 325.66
  Q 173.93 326.06 174.36 325.74
  Z"
/>
<path fill="#012060" d="
  M 208.31 339.21
  C 205.11 341.68 200.66 340.81 200.30 336.44
  Q 200.07 333.71 200.32 324.23
  Q 200.34 323.75 200.81 323.75
  L 201.93 323.75
  A 0.57 0.56 90.0 0 1 202.49 324.32
  C 202.51 327.40 200.88 339.42 205.98 338.51
  C 211.74 337.49 206.74 321.82 210.85 323.87
  Q 211.25 324.07 211.25 324.51
  L 211.25 340.19
  Q 211.25 340.70 210.75 340.72
  L 210.40 340.74
  Q 209.92 340.77 209.72 340.33
  L 209.31 339.46
  Q 208.97 338.71 208.31 339.21
  Z"
/>
<path fill="#012060" d="
  M 230.44 338.98
  C 227.52 342.23 222.67 340.66 222.46 336.18
  Q 222.19 330.24 222.25 324.26
  Q 222.25 323.75 222.77 323.75
  L 223.93 323.75
  Q 224.51 323.75 224.51 324.33
  C 224.49 327.17 222.94 339.12 228.02 338.50
  C 232.21 337.98 231.38 328.25 230.76 324.49
  Q 230.66 323.85 231.31 323.82
  L 232.85 323.75
  A 0.66 0.65 88.8 0 1 233.54 324.42
  L 233.40 340.12
  Q 233.40 340.69 232.82 340.72
  L 232.32 340.75
  Q 231.81 340.77 231.66 340.29
  L 231.31 339.17
  A 0.51 0.51 0.0 0 0 230.44 338.98
  Z"
/>
<path fill="#02020b" fill-opacity="0.996" d="
  M 240.83 326.44
  A 2.08 2.07 81.7 0 0 239.51 328.22
  Q 239.08 334.08 239.29 339.96
  A 0.71 0.71 0.0 0 1 238.83 340.65
  C 237.55 341.14 237.00 340.64 237.00 339.37
  Q 237.00 331.91 237.00 324.46
  A 0.87 0.87 0.0 0 1 238.51 323.87
  L 239.30 324.73
  Q 239.72 325.18 240.13 324.73
  Q 241.76 322.92 243.96 324.25
  A 1.17 1.17 0.0 0 1 243.03 326.37
  Q 241.89 326.03 240.83 326.44
  Z"
/>
<path fill="#012060" d="
  M 251.4049 340.7699
  A 8.58 6.58 89.7 0 1 244.7801 332.2245
  A 8.58 6.58 89.7 0 1 251.3151 323.6101
  A 8.58 6.58 89.7 0 1 257.9399 332.1555
  A 8.58 6.58 89.7 0 1 251.4049 340.7699
  Z
  M 251.4200 338.5300
  A 6.29 4.17 90.0 0 0 255.5900 332.2400
  A 6.29 4.17 90.0 0 0 251.4200 325.9500
  A 6.29 4.17 90.0 0 0 247.2500 332.2400
  A 6.29 4.17 90.0 0 0 251.4200 338.5300
  Z"
/>
<path fill="#02020b" fill-opacity="0.996" d="
  M 285.18 325.06
  C 286.54 323.78 290.55 322.65 289.39 326.11
  Q 289.21 326.66 288.70 326.38
  Q 286.91 325.39 285.40 327.22
  Q 285.00 327.69 284.99 328.30
  L 284.64 340.30
  Q 284.62 340.66 284.27 340.69
  L 283.16 340.77
  Q 282.50 340.82 282.50 340.16
  L 282.50 324.27
  Q 282.50 323.81 282.95 323.76
  Q 284.28 323.61 284.58 324.88
  Q 284.72 325.48 285.18 325.06
  Z"
/>
<rect fill="#012060" x="291.25" y="323.73" width="2.26" height="17.00" rx="0.70"/>
<path fill="#012060" d="
  M 326.15 338.86
  C 316.96 345.09 313.66 332.42 321.47 331.02
  Q 323.72 330.62 325.99 330.17
  A 0.76 0.75 -87.2 0 0 326.56 329.64
  C 327.78 325.46 321.58 324.60 319.58 328.70
  A 0.63 0.63 0.0 0 1 318.82 329.02
  C 314.78 327.74 321.46 321.74 327.02 324.53
  C 329.93 325.99 329.04 337.06 329.21 340.16
  Q 329.25 340.72 328.68 340.76
  Q 327.09 340.86 327.02 339.29
  A 0.56 0.56 0.0 0 0 326.15 338.86
  Z
  M 319.84 334.08
  C 316.60 339.75 327.67 340.57 326.67 332.78
  A 0.50 0.50 0.0 0 0 326.07 332.36
  L 320.60 333.53
  Q 320.10 333.64 319.84 334.08
  Z"
/>
<path fill="#012060" d="
  M 339.96 326.33
  C 333.25 323.72 334.60 336.95 334.88 339.96
  A 0.74 0.74 0.0 0 1 334.07 340.77
  L 333.14 340.67
  Q 332.50 340.61 332.50 339.97
  L 332.50 324.38
  Q 332.50 323.75 333.12 323.75
  L 333.85 323.75
  Q 334.45 323.75 334.48 324.35
  L 334.53 325.38
  Q 334.58 326.40 335.30 325.66
  C 338.50 322.35 343.71 323.69 343.73 328.24
  Q 343.76 333.75 343.75 339.25
  C 343.75 340.43 343.17 341.15 341.98 340.69
  Q 341.51 340.51 341.51 340.00
  C 341.49 336.55 342.24 329.93 340.68 326.97
  Q 340.44 326.51 339.96 326.33
  Z"
/>
<path fill="#012060" d="
  M 355.91 333.41
  C 355.63 338.06 361.79 341.02 363.20 335.71
  A 1.23 1.22 -82.2 0 1 364.38 334.81
  C 367.73 334.81 363.49 342.58 357.84 340.22
  Q 354.52 338.83 353.80 334.50
  C 351.64 321.46 366.48 320.12 366.16 331.92
  A 1.16 1.15 1.0 0 1 364.99 333.04
  L 356.45 332.91
  A 0.54 0.53 1.7 0 0 355.91 333.41
  Z
  M 356.55 331.03
  L 363.26 330.75
  A 0.53 0.53 0.0 0 0 363.77 330.20
  L 363.76 330.12
  A 4.27 3.73 87.6 0 0 359.86 326.01
  L 359.54 326.02
  A 4.27 3.73 87.6 0 0 355.99 330.44
  L 355.99 330.52
  A 0.53 0.53 0.0 0 0 356.55 331.03
  Z"
/>
<path fill="#012060" d="
  M 387.52 335.47
  C 384.98 346.75 371.91 338.40 376.78 327.19
  C 379.03 321.99 385.87 322.81 387.43 328.32
  Q 387.55 328.77 387.17 329.01
  L 386.06 329.71
  A 0.59 0.59 0.0 0 1 385.20 329.44
  L 384.18 327.06
  Q 383.97 326.57 383.47 326.41
  C 375.96 323.99 376.65 340.74 383.17 338.18
  Q 384.95 337.48 385.17 334.41
  A 0.56 0.56 0.0 0 1 385.97 333.94
  L 387.03 334.46
  A 0.90 0.90 0.0 0 1 387.52 335.47
  Z"
/>
<path fill="#012060" d="
  M 395.2050 340.7800
  A 8.58 6.58 89.9 0 1 388.6100 332.2115
  A 8.58 6.58 89.9 0 1 395.1750 323.6200
  A 8.58 6.58 89.9 0 1 401.7700 332.1885
  A 8.58 6.58 89.9 0 1 395.2050 340.7800
  Z
  M 395.1548 338.6198
  A 6.33 4.18 90.5 0 0 399.3898 332.3265
  A 6.33 4.18 90.5 0 0 395.2652 325.9602
  A 6.33 4.18 90.5 0 0 391.0302 332.2535
  A 6.33 4.18 90.5 0 0 395.1548 338.6198
  Z"
/>
<path fill="#012060" d="
  M 415.03 325.77
  C 418.29 322.85 422.44 322.86 423.18 328.08
  Q 423.52 330.49 423.10 339.32
  C 423.04 340.67 422.48 341.27 421.16 340.57
  Q 420.75 340.36 420.75 339.90
  Q 420.75 334.34 420.73 328.75
  C 420.71 324.42 415.14 325.81 415.07 329.33
  Q 414.95 334.74 415.02 340.19
  A 0.50 0.50 0.0 0 1 414.53 340.69
  L 413.08 340.70
  Q 412.50 340.71 412.50 340.13
  L 412.50 328.26
  A 2.29 2.29 0.0 0 0 409.73 326.02
  C 405.50 326.92 406.65 336.80 406.69 340.05
  Q 406.70 340.62 406.14 340.67
  L 405.09 340.78
  A 0.64 0.63 -2.9 0 1 404.39 340.15
  L 404.23 324.28
  Q 404.23 323.73 404.78 323.76
  L 405.71 323.81
  Q 406.28 323.84 406.39 324.40
  L 406.60 325.47
  Q 406.77 326.31 407.28 325.62
  Q 409.54 322.55 412.94 324.35
  Q 413.36 324.58 413.61 324.99
  L 413.98 325.61
  Q 414.40 326.33 415.03 325.77
  Z"
/>
<path fill="#012060" d="
  M 427.98 333.50
  C 427.66 338.81 434.58 340.62 435.46 335.35
  A 0.97 0.97 0.0 0 1 437.30 335.09
  Q 437.83 336.21 437.23 337.26
  Q 434.02 342.83 428.59 339.68
  C 423.77 336.89 424.34 325.07 431.14 323.79
  C 435.85 322.91 438.40 328.13 438.08 332.35
  Q 438.04 332.95 437.43 332.95
  L 428.49 333.02
  Q 428.01 333.03 427.98 333.50
  Z
  M 428.41 330.88
  L 435.44 330.72
  A 0.35 0.35 0.0 0 0 435.79 330.36
  L 435.78 330.24
  A 4.33 3.71 88.7 0 0 431.98 326.00
  L 431.66 326.00
  A 4.33 3.71 88.7 0 0 428.04 330.42
  L 428.05 330.54
  A 0.35 0.35 0.0 0 0 428.41 330.88
  Z"
/>
<path fill="#012060" d="
  M 446.07 343.33
  Q 444.23 343.01 445.01 341.29
  A 0.71 0.70 30.4 0 0 444.78 340.43
  C 443.71 339.68 442.55 339.21 441.94 338.04
  C 435.73 326.13 449.83 317.84 451.96 328.54
  A 1.12 1.12 0.0 0 1 450.03 329.50
  Q 449.22 328.58 448.99 327.32
  A 1.12 1.11 -81.0 0 0 448.45 326.57
  C 442.48 323.20 440.62 335.64 445.52 338.37
  Q 445.95 338.62 446.45 338.54
  Q 449.66 338.03 449.82 334.51
  Q 449.85 333.79 450.55 333.99
  L 451.45 334.25
  Q 452.04 334.42 452.01 335.04
  Q 451.77 339.71 447.13 340.71
  A 0.61 0.61 0.0 0 0 446.65 341.24
  Q 446.54 342.18 447.48 342.57
  A 1.41 1.39 -1.6 0 1 448.18 343.22
  C 449.76 346.31 446.42 348.25 443.73 347.56
  A 0.80 0.80 0.0 0 1 443.13 346.71
  L 443.24 345.70
  A 0.67 0.66 -77.7 0 1 444.12 345.13
  Q 446.23 345.88 446.55 344.02
  A 0.60 0.60 0.0 0 0 446.07 343.33
  Z"
/>
<path fill="#02020b" fill-opacity="0.996" d="
  M 455.64 328.98
  A 1.14 1.13 3.1 0 1 454.27 327.46
  C 456.33 322.37 465.45 321.78 465.53 328.77
  Q 465.59 334.51 465.90 340.24
  Q 465.93 340.75 465.42 340.75
  L 464.88 340.75
  A 0.81 0.81 0.0 0 1 464.15 340.29
  L 463.45 338.82
  A 0.48 0.48 0.0 0 0 462.67 338.70
  C 460.00 341.52 454.16 341.54 453.75 336.85
  C 453.22 330.65 458.37 331.14 462.47 330.20
  A 1.40 1.40 0.0 0 0 463.39 328.18
  Q 461.64 324.90 457.88 326.45
  Q 457.44 326.63 457.33 327.10
  Q 456.97 328.60 455.64 328.98
  Z
  M 456.66 334.14
  C 453.33 339.57 463.78 340.65 463.39 332.90
  Q 463.37 332.43 462.90 332.47
  Q 460.05 332.72 457.33 333.61
  Q 456.90 333.75 456.66 334.14
  Z"
/>
<path fill="#012060" d="
  M 484.50 326.84
  Q 480.28 324.38 478.22 328.69
  A 0.67 0.66 -70.8 0 1 477.47 329.06
  C 476.06 328.74 475.90 327.70 476.55 326.57
  C 479.17 322.03 487.57 322.50 487.57 329.00
  Q 487.57 334.65 487.85 340.30
  Q 487.88 340.82 487.35 340.77
  L 486.32 340.67
  Q 485.82 340.62 485.78 340.12
  Q 485.73 339.27 485.16 338.84
  A 0.62 0.62 0.0 0 0 484.33 338.91
  C 481.04 342.32 475.52 340.71 475.67 335.73
  C 475.84 330.31 480.66 331.26 484.09 330.25
  A 1.87 1.87 0.0 0 0 484.50 326.84
  Z
  M 483.61 332.45
  L 478.30 333.98
  A 1.06 1.06 0.0 0 0 477.58 335.29
  L 477.69 335.67
  A 3.76 3.72 73.9 0 0 482.31 338.26
  L 482.50 338.20
  A 3.76 3.72 73.9 0 0 485.03 333.56
  L 484.92 333.17
  A 1.06 1.06 0.0 0 0 483.61 332.45
  Z"
/>
<path fill="#012060" d="
  M 499.72 325.14
  L 500.09 324.07
  A 0.60 0.60 0.0 0 1 500.78 323.68
  L 501.79 323.91
  Q 502.31 324.03 502.30 324.57
  L 501.93 346.17
  Q 501.92 346.75 501.33 346.75
  L 500.34 346.75
  A 0.60 0.60 0.0 0 1 499.74 346.15
  Q 499.78 342.88 499.72 339.62
  A 0.44 0.43 67.7 0 0 498.99 339.31
  C 496.73 341.49 494.10 341.04 492.29 338.59
  Q 488.68 333.70 491.00 327.43
  C 492.22 324.11 496.32 322.09 498.95 325.28
  A 0.45 0.45 0.0 0 0 499.72 325.14
  Z
  M 496.3080 338.5794
  A 6.30 3.70 89.2 0 0 499.9196 332.2283
  A 6.30 3.70 89.2 0 0 496.1320 325.9806
  A 6.30 3.70 89.2 0 0 492.5204 332.3317
  A 6.30 3.70 89.2 0 0 496.3080 338.5794
  Z"
/>
<path fill="#012060" d="
  M 508.19 340.06
  C 504.68 338.09 505.69 329.69 505.80 324.27
  Q 505.81 323.68 506.40 323.73
  L 507.47 323.81
  Q 508.25 323.87 508.25 324.65
  L 508.25 335.93
  A 2.15 2.14 -69.9 0 0 509.00 337.56
  Q 511.09 339.35 512.98 337.94
  C 515.59 335.99 514.90 327.40 514.53 324.51
  Q 514.45 323.96 515.00 323.89
  L 516.31 323.71
  Q 517.00 323.62 517.00 324.32
  L 517.00 339.93
  Q 517.00 340.54 516.40 340.66
  L 515.85 340.77
  Q 515.24 340.89 515.11 340.27
  L 514.82 338.89
  A 0.43 0.43 0.0 0 0 514.06 338.71
  Q 511.55 341.95 508.19 340.06
  Z"
/>
<rect fill="#012060" x="-1.13" y="-8.47" transform="translate(521.61,332.24) rotate(-0.1)" width="2.26" height="16.94" rx="0.50"/>
<rect fill="#02020b" fill-opacity="0.996" x="-1.38" y="-1.62" transform="translate(528.60,339.14) rotate(2.2)" width="2.76" height="3.24" rx="0.81"/>
</svg>
